<svg id="visual" viewBox="0 0 900 600" width="900" height="600" xmlns="http://www.w3.org/2000/svg" xmlns:xlink="http://www.w3.org/1999/xlink" version="1.1"><rect x="0" y="0" width="900" height="600" fill="#FFFFFF"></rect><path d="M0 524L16.7 523.3C33.3 522.7 66.7 521.3 100 514.7C133.3 508 166.7 496 200 491.7C233.3 487.3 266.7 490.7 300 498C333.3 505.3 366.7 516.7 400 515.5C433.3 514.3 466.7 500.7 500 497.3C533.3 494 566.7 501 600 501C633.3 501 666.7 494 700 491.2C733.3 488.3 766.7 489.7 800 497.8C833.3 506 866.7 521 883.3 528.5L900 536L900 601L883.3 601C866.7 601 833.3 601 800 601C766.7 601 733.3 601 700 601C666.7 601 633.3 601 600 601C566.7 601 533.3 601 500 601C466.7 601 433.3 601 400 601C366.7 601 333.3 601 300 601C266.7 601 233.3 601 200 601C166.7 601 133.3 601 100 601C66.7 601 33.3 601 16.7 601L0 601Z" fill="#0066FF" stroke-linecap="round" stroke-linejoin="miter"></path></svg>